<svg xmlns="http://www.w3.org/2000/svg" xmlns:xlink="http://www.w3.org/1999/xlink" viewBox="0 0 400 300" width="406" height="306" class="illustration styles_illustrationTablet__1DWOa"><defs><linearGradient id="linear-gradient" x1="149.68" y1="191.44" x2="131.48" y2="257.35" gradientUnits="userSpaceOnUse"><stop offset="0" stop-color="#3fc1c9"></stop><stop offset="0.26" stop-color="#4fc6ce"></stop><stop offset="0.39" stop-color="#cceef1"></stop><stop offset="0.52" stop-color="#65cdd4"></stop><stop offset="1" stop-color="#3fc1c9"></stop></linearGradient><linearGradient id="linear-gradient-2" x1="321.22" y1="135.86" x2="300.96" y2="208.03" xlink:href="#linear-gradient"></linearGradient><linearGradient id="linear-gradient-3" x1="128.26" y1="127.04" x2="112.11" y2="180.35" xlink:href="#linear-gradient"></linearGradient><linearGradient id="linear-gradient-4" x1="59.44" y1="167.37" x2="35.96" y2="190" gradientUnits="userSpaceOnUse"><stop offset="0" stop-color="#78b46a"></stop><stop offset="0.03" stop-color="#7f3500"></stop><stop offset="1" stop-color="#fff"></stop></linearGradient><linearGradient id="linear-gradient-5" x1="226.18" y1="207.19" x2="201.31" y2="236.29" xlink:href="#linear-gradient-4"></linearGradient><linearGradient id="linear-gradient-6" x1="360.96" y1="161.92" x2="338.64" y2="183.43" xlink:href="#linear-gradient-4"></linearGradient></defs><title>ZZZ</title><g style="isolation: isolate;"><g id="Layer_2" data-name="Layer 2"><polygon points="395.4 169.88 395.4 163.14 390.7 165.36 395.4 169.88" fill="#eaa357"></polygon><polygon points="5.5 172.82 5.5 179.83 10.49 175.62 5.5 172.82" fill="#eaa357"></polygon><path d="M206.23,285.22,387.82,177.9c5.78-3.25,10.74-8.58,5.1-12.07L210.68,60.8c-2.73-1.69-6.89-2.8-9.67-1.19L10.39,170.24c-5.78,3.36-6.82,12.73-1,16.09l172.94,98.72A24.15,24.15,0,0,0,206.23,285.22Z" fill="#eaa357"></path><path d="M206.23,278.84,387.82,171.51c5.78-3.25,10.74-8.58,5.1-12.07l-182.25-105c-2.73-1.69-6.89-2.8-9.67-1.19L10.39,163.85c-5.78,3.36-6.82,12.73-1,16.09l172.94,98.72A24.15,24.15,0,0,0,206.23,278.84Z" fill="#ffe1bc"></path><path d="M120.33,72.31c-7.17-4.21-9.06-14-3.62-20.26q.29-.33.6-.66c7.59-7.85,22.19,0,22.19,0s4.24-12,24.52-9.35C184.62,44.76,187.86,66,187.86,66s16.76,7.35,17.48,17.86-14.28,20.5-28.87,17C164.9,98.05,133.05,79.77,120.33,72.31Z" fill="#68e1fd"></path><path d="M205.34,83.83c-.32-4.58-3.68-8.56-7.37-11.6a21.56,21.56,0,0,1-11.21,11.84c-8.64,4.13-18.48,4-27.78,2.85a109.64,109.64,0,0,1-22-5.05c14.25,8,31.56,17.06,39.44,18.95C191.07,104.33,206.07,94.34,205.34,83.83Z" fill="#62a5b5" opacity="0.54"></path><path d="M247.16,164.44c-.14-2.14,0-4.3,0-6.44V103.1c0-1.09-2-1.09-2,0v58.58c0,.66.31,3.62-.32,3.87a.85.85,0,0,1-.87-.22,1.72,1.72,0,0,1-.43-.83,3.59,3.59,0,0,1-.09-1.2.92.92,0,0,0-.06-.59.55.55,0,0,0-.57-.2,1.25,1.25,0,0,0-.79,1.4,4.2,4.2,0,0,0,2.19,3.71C246.49,168.56,247.28,166.15,247.16,164.44Z" fill="#860e4b"></path><path d="M207.33,221.46s1.55-.12,1.89-2.22,0-6,.28-6.39,2-2.54,2-2.54-3.73-2.19-4.21-1.92-3,2.62-3,2.62" fill="#5960f9"></path><path d="M204.79,210.81c-.39,0-1.15.46-1.23,1.92s1.23,2.23,1.23,3.23.92,5.52,2.54,5.49.92-5.18.62-6.42S206.67,210.8,204.79,210.81Z" fill="#35464d"></path><path d="M230.6,219.51v4.21s.29,2.39,2.1,2.49,8.12-3.63,8.12-4.3-.57-1.34-2.58-1.34-3.39.13-3.39.13" fill="#5960f9"></path><path d="M215,175.16c-.67.14-.93,17,0,22.16,0,0-6.63,8.59-8.18,11.34,0,0,4.22,1.37,4.09,3.27,0,0,9.52-7.09,11.72-12s3.27-21.58,3.27-21.58S219.77,174.13,215,175.16Z" fill="#566d7c"></path><path d="M232.46,180.82s2.34,13.23,3,18,0,21.83,0,21.83-3.32,1.72-5.21,0-1-17.8-1.89-19.55-7.85-12.48-7.88-19.49S232.46,180.82,232.46,180.82Z" fill="#35464d"></path><path d="M215.1,178.76s-.69-24.58,1.2-28.19,14.78-1,16.16,3.09,0,27.16,0,27.16a8,8,0,0,1-6.7,2.58C221.63,182.88,215.1,178.76,215.1,178.76Z" fill="#ed0200"></path><path d="M226.79,158s-1.45,14,6.06,14.62A30.56,30.56,0,0,0,244,167.24a3.23,3.23,0,0,0-1.37-4l-9.53,2.86-.19-9.76s-.25-3.25-2.66-3.07S226.79,158,226.79,158Z" fill="#ed5454"></path><path d="M218.6,136.69c-.47.28,0,3.8-1.83,7.43s-6.56,4.83-5.28,8.85,4.43,2.52,7.11,4.53.09,8,7.33,7.5,4.91-6.3,7-7.7,3.49-4.53,1.63-6.44-6.17-2.82-5.94-4.53,6.87-8.35,1.17-11.37S218.6,136.69,218.6,136.69Z" fill="#35464d"></path><path d="M245.76,107.21s-20.07-1.56-29,16.93c0,0,2.28,1.88,2,4.45" fill="#f8d34f"></path><path d="M246,107.21s20.07-1.56,29,16.93c0,0-2.28,1.88-2,4.45" fill="#f8d34f"></path><path d="M233.91,145.42s8.49-5.29,24.08,0c0,0,0-31.21-12.24-38.21,0,0-7.9,3.24-9.67,11.6S233.91,145.42,233.91,145.42Z" fill="#f8d34f"></path><path d="M245.76,107.21s-10.86,8.87-11.84,38.21c0,0-3.75-8.36-18.56-9C215.36,136.38,218.12,112.67,245.76,107.21Z" fill="#68e1fd"></path><path d="M245.76,107.21s10.86,8.87,11.84,38.21c0,0,3.75-8.36,18.56-9C276.16,136.38,273.4,112.67,245.76,107.21Z" fill="#68e1fd"></path><path d="M248,162.6c-.46-1-1.8.23-1.8.23s0-.92-.65-.83a14.44,14.44,0,0,0-2.77,1.72,5.62,5.62,0,0,1,1.1,3,25.08,25.08,0,0,0,3.75-1.14C248.34,165.18,248.42,163.59,248,162.6Z" fill="#ffe5c2"></path><path d="M171.23,205.47c-8.77-9.61-24.94-5.27-35.84-2.66-7.37,1.76-21.86,7.95-12.89,17.43,3.84,4.06,8.14,4.42,13.25,5.52,2.93.63,3.21,2.61,5.19,4.61a11.36,11.36,0,0,0,5.55,2.92c5,1.2,10.75.34,15.47-1.4,4.21-1.55,8.79-4.22,8-9.43a9.18,9.18,0,0,0-2.11-4.56c.48-.25,1-.51,1.4-.8C173.28,214.43,174.73,209.3,171.23,205.47Z" fill="#f4c795"></path><path d="M168.43,205.47c-8.77-9.61-24.94-5.27-35.84-2.66-7.37,1.76-21.86,7.95-12.89,17.43,3.84,4.06,8.14,4.42,13.25,5.52,2.93.63,3.21,2.61,5.19,4.61a11.36,11.36,0,0,0,5.55,2.92c5,1.2,10.75.34,15.47-1.4,4.21-1.55,8.79-4.22,8-9.43A9.18,9.18,0,0,0,165,217.9c.48-.25,1-.51,1.4-.8C170.48,214.43,171.93,209.3,168.43,205.47Z" fill="url(#linear-gradient)"></path><path d="M345.16,158.1c-5.35-1.93-12.55.33-17.74,1.6-6.1,1.5-12.22,3.25-18.64,3.55-7.26.34-13.48-4.1-20.51-1.35-10.43,4.08-24.39,23.24-3.42,23.11,15.65-.1,27.73-9.61,42.67-11.66,6.87-.94,15.56,1.14,21.44-2.76C354,167.22,350.5,160,345.16,158.1Z" fill="#f4c795"></path><path d="M343.68,157.32c-5.35-1.93-12.55.33-17.74,1.6-6.1,1.5-12.22,3.25-18.64,3.55-7.26.34-13.48-4.1-20.51-1.35-10.43,4.08-24.39,23.24-3.42,23.11,15.65-.1,27.73-9.61,42.67-11.66,6.87-.94,15.56,1.14,21.44-2.76C352.56,166.44,349,159.24,343.68,157.32Z" fill="url(#linear-gradient-2)"></path><path d="M134.62,130.33c-2.4-.6-30,5.76-29.63,15.23s14.81,6.94,28,5.32S157.66,136.09,134.62,130.33Z" fill="#f4c795"></path><path d="M131.79,130.67a22.26,22.26,0,0,0-7.05.42c-6,1.61-22.9,5.62-22.52,14.18.41,9.46,14.81,6.94,28,5.32,5.27-.65,14-3.86,14.78-10.13C145.78,134,138.31,131.19,131.79,130.67Z" fill="url(#linear-gradient-3)"></path><path d="M18.23,185l37.66-16.35,6.47,10.69L47,201.43Z" opacity="0.46" fill="url(#linear-gradient-4)" style="mix-blend-mode: multiply;"></path><path d="M62.36,179.24V140.13H53.85v39.45C56.79,180.44,59.89,180.57,62.36,179.24Z" fill="#a83f1e"></path><path d="M59,140.24V180.3a8.57,8.57,0,0,0,3.39-.94V140.24Z" fill="#7f2b14"></path><path d="M70,143.79c5.3-.26,12.08-2.16,10.09-8.06-1.17-3.49-4.78-6.56-7.09-9.33s-1.8-4.62-4.37-7.32c2.19.09,5.38-.32,5.92-2.5.47-1.9-9.76-13.58-14.19-18.31A2.83,2.83,0,0,0,56.47,98c-5.27,4.2-18.74,15.37-16.86,18.59,1.13,1.94,3.43,2.62,5.48,2.79-4.84,4.86-10.37,10.93-10.92,17.39-.49,5.61,5.25,6.36,10.6,6.07C41.07,147.34,31,160.13,33.33,164c1.21,2,5.1,2.73,7.4,3.18a73.51,73.51,0,0,0,15.17,1.46A46.72,46.72,0,0,0,71,166.39a21.12,21.12,0,0,0,7.36-4c2.35-2.21,1-4.57-.49-6.79C75.17,151.66,72.56,147.73,70,143.79Z" fill="#52af45"></path><path d="M68.59,119.08s-6.45-.42-10.94-.3l22.74,18.69s.61-2.17-3.41-6.62A91.5,91.5,0,0,1,68.59,119.08Z" fill="#0d5b23"></path><path d="M70,143.79H56.73l21.61,18.56a3.29,3.29,0,0,0,.95-4.27C77.84,155.56,70,143.79,70,143.79Z" fill="#0d5b23"></path><path d="M178.39,231.26,207.95,215l32.88,6.85-33.67,25.79Z" opacity="0.46" fill="url(#linear-gradient-5)" style="mix-blend-mode: multiply;"></path><path d="M323.06,180l39.44-11.76,4.69,6.1L345.88,193Z" opacity="0.46" fill="url(#linear-gradient-6)" style="mix-blend-mode: multiply;"></path><path d="M366.44,175.93V147.55h-6.18v28.62A8.26,8.26,0,0,0,366.44,175.93Z" fill="#a83f1e"></path><path d="M364,147.63v29.06a6.22,6.22,0,0,0,2.46-.69V147.63Z" fill="#7f2b14"></path><path d="M371.95,150.21c3.84-.19,8.76-1.57,7.32-5.85-.85-2.53-3.47-4.76-5.14-6.77s-1.3-3.35-3.17-5.31c1.59.07,3.9-.23,4.29-1.81.34-1.38-7.08-9.85-10.3-13.29a2.06,2.06,0,0,0-2.79-.2c-3.83,3-13.6,11.15-12.23,13.49a4.87,4.87,0,0,0,4,2c-3.51,3.52-7.52,7.93-7.93,12.62-.35,4.07,3.81,4.61,7.69,4.4-2.68,3.26-10,12.54-8.3,15.36.88,1.49,3.7,2,5.37,2.31a53.33,53.33,0,0,0,11,1.06,33.9,33.9,0,0,0,10.94-1.65,15.33,15.33,0,0,0,5.34-2.93c1.71-1.61.75-3.31-.35-4.93C375.73,155.92,373.84,153.06,371.95,150.21Z" fill="#52af45"></path><path d="M371,132.28s-4.68-.3-7.94-.22l16.5,13.56s.44-1.58-2.48-4.8A66.39,66.39,0,0,1,371,132.28Z" fill="#0d5b23"></path><path d="M371.95,150.21h-9.6L378,163.67a2.39,2.39,0,0,0,.69-3.1C377.67,158.74,371.95,150.21,371.95,150.21Z" fill="#0d5b23"></path><path d="M282.82,81.19a9.75,9.75,0,0,1-2.63-14.7l.44-.48c5.51-5.69,16.1,0,16.1,0s3.08-8.72,17.79-6.78c14.94,2,17.29,17.36,17.29,17.36s12.16,5.33,12.68,13-10.36,14.87-20.95,12.33C315.16,99.86,292.05,86.6,282.82,81.19Z" fill="#68e1fd"></path><path d="M344.5,89.55c-.23-3.32-2.67-6.21-5.35-8.41A15.64,15.64,0,0,1,331,89.73c-6.27,3-13.4,2.92-20.15,2.07a79.54,79.54,0,0,1-15.93-3.67c10.34,5.78,22.89,12.37,28.61,13.75C334.14,104.42,345,97.17,344.5,89.55Z" fill="#62a5b5" opacity="0.54"></path><path d="M155.55,109.34l-2.21,6.86c-.79,2.45,3,3.68,3.81,1.23l2.21-6.86C160.15,108.12,156.35,106.88,155.55,109.34Z" fill="#62a5b5"></path><path d="M133.12,90.45l-2.21,6.86c-.79,2.45,3,3.68,3.81,1.23l2.21-6.86C137.71,89.23,133.91,88,133.12,90.45Z" fill="#62a5b5"></path><path d="M137.45,109.34l-2.21,6.86c-.79,2.45,3,3.68,3.81,1.23l2.21-6.86C142,108.12,138.24,106.88,137.45,109.34Z" fill="#62a5b5"></path><path d="M166.49,124.54l-2.21,6.86c-.79,2.45,3,3.68,3.81,1.23l2.21-6.86C171.09,123.32,167.29,122.09,166.49,124.54Z" fill="#62a5b5"></path><path d="M184.24,112.49,182,119.34c-.79,2.45,3,3.68,3.81,1.23l2.21-6.86C188.83,111.26,185,110,184.24,112.49Z" fill="#62a5b5"></path><path d="M238.83,82l-2.21,6.86c-.79,2.45,3,3.68,3.81,1.23l2.21-6.86C243.43,80.79,239.62,79.55,238.83,82Z" fill="#62a5b5"></path><path d="M216.39,63.13,214.18,70c-.79,2.45,3,3.68,3.81,1.23l2.21-6.86C221,61.9,217.19,60.67,216.39,63.13Z" fill="#62a5b5"></path><path d="M220.73,82l-2.21,6.86c-.79,2.45,3,3.68,3.81,1.23l2.21-6.86C225.33,80.79,221.52,79.55,220.73,82Z" fill="#62a5b5"></path><path d="M249.77,97.21l-2.21,6.86c-.79,2.45,3,3.68,3.81,1.23l2.21-6.86C254.37,96,250.56,94.76,249.77,97.21Z" fill="#62a5b5"></path><path d="M267.51,85.16,265.3,92c-.79,2.45,3,3.68,3.81,1.23l2.21-6.86C272.11,83.94,268.31,82.7,267.51,85.16Z" fill="#62a5b5"></path><path d="M308.77,159.79l-2.21,6.86c-.79,2.45,3,3.68,3.81,1.23l2.21-6.86C313.37,158.57,309.56,157.34,308.77,159.79Z" fill="#62a5b5"></path><path d="M286.33,140.91l-2.21,6.86c-.79,2.45,3,3.68,3.81,1.23l2.21-6.86C290.93,139.69,287.13,138.45,286.33,140.91Z" fill="#62a5b5"></path><path d="M290.67,159.79l-2.21,6.86c-.79,2.45,3,3.68,3.81,1.23l2.21-6.86C295.27,158.57,291.46,157.34,290.67,159.79Z" fill="#62a5b5"></path><path d="M319.71,175l-2.21,6.86c-.79,2.45,3,3.68,3.81,1.23l2.21-6.86C324.31,173.77,320.5,172.54,319.71,175Z" fill="#62a5b5"></path><path d="M337.45,162.94l-2.21,6.86c-.79,2.45,3,3.68,3.81,1.23l2.21-6.86C342.05,161.72,338.25,160.48,337.45,162.94Z" fill="#62a5b5"></path><path d="M163.37,164l-2.21,6.86c-.79,2.45,3,3.68,3.81,1.23l2.21-6.86C168,162.73,164.16,161.5,163.37,164Z" fill="#62a5b5"></path><path d="M140.93,145.07l-2.21,6.86c-.79,2.45,3,3.68,3.81,1.23l2.21-6.86C145.53,143.85,141.73,142.61,140.93,145.07Z" fill="#62a5b5"></path><path d="M145.27,164l-2.21,6.86c-.79,2.45,3,3.68,3.81,1.23l2.21-6.86C149.87,162.73,146.06,161.5,145.27,164Z" fill="#62a5b5"></path><path d="M174.31,179.16,172.1,186c-.79,2.45,3,3.68,3.81,1.23l2.21-6.86C178.91,177.93,175.1,176.7,174.31,179.16Z" fill="#62a5b5"></path><path d="M192.05,167.1,189.84,174c-.79,2.45,3,3.68,3.81,1.23l2.21-6.86C196.65,165.88,192.85,164.64,192.05,167.1Z" fill="#62a5b5"></path><path d="M93.79,186.37l-2.21,6.86c-.79,2.45,3,3.68,3.81,1.23l2.21-6.86C98.39,185.15,94.59,183.92,93.79,186.37Z" fill="#62a5b5"></path><path d="M71.36,167.49l-2.21,6.86c-.79,2.45,3,3.68,3.81,1.23l2.21-6.86C76,166.27,72.15,165,71.36,167.49Z" fill="#62a5b5"></path><path d="M75.69,186.37l-2.21,6.86c-.79,2.45,3,3.68,3.81,1.23l2.21-6.86C80.29,185.15,76.48,183.92,75.69,186.37Z" fill="#62a5b5"></path><path d="M104.73,201.58l-2.21,6.86c-.79,2.45,3,3.68,3.81,1.23l2.21-6.86C109.33,200.36,105.52,199.13,104.73,201.58Z" fill="#62a5b5"></path><path d="M122.48,189.52l-2.21,6.86c-.79,2.45,3,3.68,3.81,1.23l2.21-6.86C127.07,188.3,123.27,187.07,122.48,189.52Z" fill="#62a5b5"></path></g></g></svg>