<svg id="Layer_1" data-name="Layer 1" xmlns="http://www.w3.org/2000/svg" viewBox="0 0 400 300" width="406" height="306" class="illustration styles_illustrationTablet__1DWOa"><path d="M71.63,174s-17.93-37.52,20-83.87,82.08-36.79,124.85-42.26S350.67,74.14,334.62,170C334.62,170,200.62,229.69,71.63,174Z" fill="#e6e6e6" opacity="0.3"></path><path d="M260.6,136s-2.27-44.6,39.58-52.88l-26.9-4s14.94-13.43,32-2.39L297,50.48s19.77,1.09,13.8,28.6l14.71-16.65s4.6,16.1-10.12,20.24c0,0,18.84,10.94,10.8,24.32L314,89.11s4.14,17.37-6,17.88l-1.38-20.18S271.21,99.68,280.87,136Z" fill="#c1c1c1"></path><path d="M267.72,135s1.6-31.5-28-37.35l19-2.86s-10.55-9.48-22.57-1.69L242,74.62s-14,.77-9.75,20.2L221.9,83.07S218.65,94.43,229,97.36c0,0-13.3,7.72-7.62,17.18L230,101.9s-2.93,12.28,4.22,12.64l1-14.26s25,9.09,18.19,34.75Z" fill="#c1c1c1" opacity="0.54"></path><path d="M209.13,174.86s4.6-12.26,23.45-30.2,72.66-18.39,95.65,22.53C328.23,167.19,284.54,193.11,209.13,174.86Z" fill="#e6e6e6"></path><circle cx="151.36" cy="164.06" r="40.67" fill="#ffd200"></circle><path d="M188.82,65.08a6.7,6.7,0,0,0-6.69-6.69,6.38,6.38,0,0,0-1.08.1,9,9,0,0,0-7.94-4.75l-.33,0a10.58,10.58,0,0,0,.33-2.6,10.7,10.7,0,0,0-21.4,0,11.09,11.09,0,0,0,.33,2.6l-.33,0a9,9,0,0,0,0,18H183v-.06A6.69,6.69,0,0,0,188.82,65.08Z" fill="#efefef"></path><path d="M85.59,135.08a4,4,0,0,0-4-4,4.37,4.37,0,0,0-.64,0,5.4,5.4,0,0,0-4.75-2.84H76a6.51,6.51,0,0,0,.2-1.55,6.4,6.4,0,0,0-12.8,0,6,6,0,0,0,.2,1.55h-.2a5.4,5.4,0,0,0,0,10.79H82.11v0A4,4,0,0,0,85.59,135.08Z" fill="#efefef"></path><path d="M326,129.11a3.94,3.94,0,0,0-4-3.94,4.46,4.46,0,0,0-.63,0,5.33,5.33,0,0,0-4.68-2.8h-.2a6.41,6.41,0,0,0,.2-1.53,6.32,6.32,0,0,0-12.63,0,6.41,6.41,0,0,0,.19,1.53h-.19a5.32,5.32,0,1,0,0,10.64h18.46v0A3.94,3.94,0,0,0,326,129.11Z" fill="#c1c1c1" opacity="0.17"></path><path d="M56.6,193.49c-8.85-10.11-4-24.81,9.62-29a34.61,34.61,0,0,1,22.45.47c24.09,8.73,24.91-4.88,48.55-2.44s17.26,12.79,45.31,5.44,28.06-3.56,55,0,38.49-12.85,49.41-5.74,31.3,1.65,43.53-1.81S361.16,173.7,347,192.61,305.78,220.25,240.66,221C181.69,221.63,95.86,238.4,56.6,193.49Z" fill="#68e1fd"></path><path d="M52.07,196.33s-1.49-16.49,31.32-9.79,33.77-11.23,52.11-6.37,33.77,5,59.82-.84,28,10.14,52.59,8.89,23.64-15.8,45.84-8.05,31.77-13.41,64.13-3.55c0,0,5.84,48.89-126.85,44.33C231,221,92.15,238.51,52.07,196.33Z" fill="#fff" opacity="0.12"></path><path d="M53.6,217.18s-1.48-16.49,31.32-9.79S118.7,196.16,137,201s33.77,5,59.83-.85,28,10.15,52.58,8.89,23.65-15.8,45.84-8,31.78-13.41,64.13-3.55c0,0,5.84,48.89-126.84,44.33C232.57,241.8,93.69,259.35,53.6,217.18Z" fill="#fff" opacity="0.22"></path><path d="M52.17,182.94s9.11,40.6,122.24,39.27S337,219.82,351.94,181.37c0,0-3.71,47.32-43.94,59C273.41,250.49,74.62,284.56,52.17,182.94Z" fill="#24285b"></path></svg>